G04 #@! TF.FileFunction,Soldermask,Bot*
%FSLAX46Y46*%
G04 Gerber Fmt 4.6, Leading zero omitted, Abs format (unit mm)*
G04 Created by KiCad (PCBNEW 4.0.7) date 02/16/18 12:23:05*
%MOMM*%
%LPD*%
G01*
G04 APERTURE LIST*
%ADD10C,0.100000*%
%ADD11C,1.900000*%
%ADD12R,2.100000X2.100000*%
%ADD13O,2.100000X2.100000*%
%ADD14R,2.000000X2.000000*%
%ADD15O,2.000000X2.000000*%
%ADD16C,2.600000*%
G04 APERTURE END LIST*
D10*
D11*
X124460000Y-139065000D03*
X129340000Y-139065000D03*
D12*
X106045000Y-104775000D03*
D13*
X106045000Y-107315000D03*
X106045000Y-109855000D03*
D12*
X112395000Y-99060000D03*
D13*
X112395000Y-101600000D03*
X112395000Y-104140000D03*
X112395000Y-106680000D03*
X112395000Y-109220000D03*
X112395000Y-111760000D03*
X112395000Y-114300000D03*
X112395000Y-116840000D03*
D14*
X123190000Y-98425000D03*
D15*
X130810000Y-131445000D03*
X123190000Y-100965000D03*
X130810000Y-128905000D03*
X123190000Y-103505000D03*
X130810000Y-126365000D03*
X123190000Y-106045000D03*
X130810000Y-123825000D03*
X123190000Y-108585000D03*
X130810000Y-121285000D03*
X123190000Y-111125000D03*
X130810000Y-118745000D03*
X123190000Y-113665000D03*
X130810000Y-116205000D03*
X123190000Y-116205000D03*
X130810000Y-113665000D03*
X123190000Y-118745000D03*
X130810000Y-111125000D03*
X123190000Y-121285000D03*
X130810000Y-108585000D03*
X123190000Y-123825000D03*
X130810000Y-106045000D03*
X123190000Y-126365000D03*
X130810000Y-103505000D03*
X123190000Y-128905000D03*
X130810000Y-100965000D03*
X123190000Y-131445000D03*
X130810000Y-98425000D03*
D12*
X106045000Y-116205000D03*
D13*
X106045000Y-118745000D03*
D12*
X135890000Y-131445000D03*
D13*
X135890000Y-133985000D03*
D12*
X135890000Y-98425000D03*
D13*
X135890000Y-100965000D03*
X135890000Y-103505000D03*
X135890000Y-106045000D03*
X135890000Y-108585000D03*
D12*
X135890000Y-114935000D03*
D13*
X135890000Y-117475000D03*
X135890000Y-120015000D03*
X135890000Y-122555000D03*
X135890000Y-125095000D03*
D12*
X106045000Y-125095000D03*
D13*
X106045000Y-127635000D03*
X106045000Y-130175000D03*
X106045000Y-132715000D03*
X106045000Y-135255000D03*
D16*
X105410000Y-98425000D03*
X105410000Y-140970000D03*
M02*
