G04 #@! TF.FileFunction,Copper,L2,Bot,Signal*
%FSLAX46Y46*%
G04 Gerber Fmt 4.6, Leading zero omitted, Abs format (unit mm)*
G04 Created by KiCad (PCBNEW 4.0.7) date 02/16/18 12:23:05*
%MOMM*%
%LPD*%
G01*
G04 APERTURE LIST*
%ADD10C,0.100000*%
%ADD11C,1.500000*%
%ADD12R,1.700000X1.700000*%
%ADD13O,1.700000X1.700000*%
%ADD14R,1.600000X1.600000*%
%ADD15O,1.600000X1.600000*%
%ADD16C,0.600000*%
%ADD17C,0.250000*%
G04 APERTURE END LIST*
D10*
D11*
X124460000Y-139065000D03*
X129340000Y-139065000D03*
D12*
X106045000Y-104775000D03*
D13*
X106045000Y-107315000D03*
X106045000Y-109855000D03*
D12*
X112395000Y-99060000D03*
D13*
X112395000Y-101600000D03*
X112395000Y-104140000D03*
X112395000Y-106680000D03*
X112395000Y-109220000D03*
X112395000Y-111760000D03*
X112395000Y-114300000D03*
X112395000Y-116840000D03*
D14*
X123190000Y-98425000D03*
D15*
X130810000Y-131445000D03*
X123190000Y-100965000D03*
X130810000Y-128905000D03*
X123190000Y-103505000D03*
X130810000Y-126365000D03*
X123190000Y-106045000D03*
X130810000Y-123825000D03*
X123190000Y-108585000D03*
X130810000Y-121285000D03*
X123190000Y-111125000D03*
X130810000Y-118745000D03*
X123190000Y-113665000D03*
X130810000Y-116205000D03*
X123190000Y-116205000D03*
X130810000Y-113665000D03*
X123190000Y-118745000D03*
X130810000Y-111125000D03*
X123190000Y-121285000D03*
X130810000Y-108585000D03*
X123190000Y-123825000D03*
X130810000Y-106045000D03*
X123190000Y-126365000D03*
X130810000Y-103505000D03*
X123190000Y-128905000D03*
X130810000Y-100965000D03*
X123190000Y-131445000D03*
X130810000Y-98425000D03*
D12*
X106045000Y-116205000D03*
D13*
X106045000Y-118745000D03*
D12*
X135890000Y-131445000D03*
D13*
X135890000Y-133985000D03*
D12*
X135890000Y-98425000D03*
D13*
X135890000Y-100965000D03*
X135890000Y-103505000D03*
X135890000Y-106045000D03*
X135890000Y-108585000D03*
D12*
X135890000Y-114935000D03*
D13*
X135890000Y-117475000D03*
X135890000Y-120015000D03*
X135890000Y-122555000D03*
X135890000Y-125095000D03*
D12*
X106045000Y-125095000D03*
D13*
X106045000Y-127635000D03*
X106045000Y-130175000D03*
X106045000Y-132715000D03*
X106045000Y-135255000D03*
D16*
X106680000Y-121920000D03*
X128270000Y-104775000D03*
X138430000Y-106045000D03*
X127000000Y-134620000D03*
X127000000Y-122555000D03*
X119380000Y-139065000D03*
X113030000Y-120015000D03*
X109220000Y-111125000D03*
X126365000Y-111125000D03*
X126365000Y-103505000D03*
X128270000Y-115570000D03*
D17*
X114300000Y-123190000D02*
X114300000Y-126365000D01*
X114300000Y-126365000D02*
X116840000Y-128905000D01*
X116840000Y-123190000D02*
X114300000Y-123190000D01*
X114300000Y-123190000D02*
X111760000Y-123190000D01*
X112395000Y-111760000D02*
X109855000Y-114300000D01*
X109855000Y-114300000D02*
X106045000Y-114300000D01*
X106045000Y-114300000D02*
X105410000Y-114935000D01*
X105410000Y-114935000D02*
X104775000Y-114935000D01*
X104775000Y-114935000D02*
X104775000Y-120015000D01*
X104775000Y-120015000D02*
X106680000Y-121920000D01*
X123190000Y-113665000D02*
X121920000Y-112395000D01*
X121920000Y-112395000D02*
X121920000Y-104775000D01*
X121920000Y-104775000D02*
X128270000Y-104775000D01*
X106045000Y-116205000D02*
X106680000Y-115570000D01*
X106680000Y-115570000D02*
X113665000Y-115570000D01*
X113665000Y-115570000D02*
X115570000Y-113665000D01*
X115570000Y-113665000D02*
X123190000Y-113665000D01*
X138430000Y-122555000D02*
X135890000Y-122555000D01*
X138430000Y-117475000D02*
X138430000Y-122555000D01*
X138430000Y-106045000D02*
X138430000Y-117475000D01*
X106045000Y-135255000D02*
X108585000Y-135255000D01*
X109220000Y-123190000D02*
X110490000Y-121920000D01*
X109220000Y-134620000D02*
X109220000Y-123190000D01*
X108585000Y-135255000D02*
X109220000Y-134620000D01*
X110490000Y-118745000D02*
X112395000Y-116840000D01*
X110490000Y-121920000D02*
X110490000Y-118745000D01*
X110490000Y-118745000D02*
X106045000Y-118745000D01*
X124460000Y-139065000D02*
X124460000Y-137160000D01*
X124460000Y-137160000D02*
X127000000Y-134620000D01*
X127000000Y-122555000D02*
X123190000Y-118745000D01*
X119380000Y-139065000D02*
X124460000Y-139065000D01*
X123190000Y-128905000D02*
X121920000Y-127635000D01*
X121920000Y-127635000D02*
X121920000Y-127000000D01*
X121920000Y-127000000D02*
X114935000Y-120015000D01*
X114935000Y-120015000D02*
X113030000Y-120015000D01*
X106045000Y-109855000D02*
X107315000Y-111125000D01*
X107315000Y-111125000D02*
X109220000Y-111125000D01*
X135890000Y-100965000D02*
X134620000Y-99695000D01*
X134620000Y-99695000D02*
X129540000Y-99695000D01*
X129540000Y-99695000D02*
X128270000Y-100965000D01*
X128270000Y-100965000D02*
X123190000Y-100965000D01*
X135890000Y-117475000D02*
X137160000Y-118745000D01*
X137160000Y-118745000D02*
X137160000Y-121285000D01*
X137160000Y-121285000D02*
X134620000Y-121285000D01*
X134620000Y-121285000D02*
X134620000Y-120650000D01*
X134620000Y-120650000D02*
X132080000Y-118110000D01*
X132080000Y-118110000D02*
X132080000Y-117475000D01*
X132080000Y-117475000D02*
X129540000Y-117475000D01*
X129540000Y-117475000D02*
X128905000Y-116840000D01*
X128905000Y-116840000D02*
X127635000Y-116840000D01*
X127635000Y-116840000D02*
X127635000Y-116205000D01*
X127635000Y-116205000D02*
X127000000Y-116205000D01*
X127000000Y-116205000D02*
X127000000Y-111760000D01*
X127000000Y-111760000D02*
X126365000Y-111125000D01*
X126365000Y-103505000D02*
X123190000Y-103505000D01*
X135890000Y-131445000D02*
X132080000Y-127635000D01*
X132080000Y-127635000D02*
X132080000Y-120015000D01*
X132080000Y-120015000D02*
X129540000Y-120015000D01*
X129540000Y-120015000D02*
X124460000Y-114935000D01*
X124460000Y-114935000D02*
X124460000Y-107315000D01*
X124460000Y-107315000D02*
X123190000Y-106045000D01*
X135890000Y-114935000D02*
X135890000Y-111125000D01*
X135890000Y-111125000D02*
X137160000Y-109855000D01*
X137160000Y-109855000D02*
X137160000Y-99695000D01*
X137160000Y-99695000D02*
X135890000Y-98425000D01*
X135890000Y-120015000D02*
X134620000Y-118745000D01*
X134620000Y-118745000D02*
X134620000Y-104775000D01*
X134620000Y-104775000D02*
X135890000Y-103505000D01*
X128270000Y-115570000D02*
X129540000Y-114300000D01*
X129540000Y-114300000D02*
X129540000Y-109855000D01*
X129540000Y-109855000D02*
X130810000Y-108585000D01*
M02*
