G04 #@! TF.FileFunction,Copper,L1,Top,Signal*
%FSLAX46Y46*%
G04 Gerber Fmt 4.6, Leading zero omitted, Abs format (unit mm)*
G04 Created by KiCad (PCBNEW 4.0.7) date 02/16/18 12:23:05*
%MOMM*%
%LPD*%
G01*
G04 APERTURE LIST*
%ADD10C,0.100000*%
%ADD11R,3.800000X2.000000*%
%ADD12R,1.500000X2.000000*%
%ADD13C,1.500000*%
%ADD14R,1.700000X1.700000*%
%ADD15O,1.700000X1.700000*%
%ADD16R,1.500000X1.250000*%
%ADD17R,1.250000X1.500000*%
%ADD18R,1.600000X1.600000*%
%ADD19O,1.600000X1.600000*%
%ADD20R,1.500000X1.300000*%
%ADD21C,0.600000*%
%ADD22C,0.250000*%
G04 APERTURE END LIST*
D10*
D11*
X114300000Y-135865000D03*
D12*
X114300000Y-129565000D03*
X112000000Y-129565000D03*
X116600000Y-129565000D03*
D13*
X124460000Y-139065000D03*
X129340000Y-139065000D03*
D14*
X106045000Y-104775000D03*
D15*
X106045000Y-107315000D03*
X106045000Y-109855000D03*
D16*
X114320000Y-140335000D03*
X116820000Y-140335000D03*
X135275000Y-139065000D03*
X137775000Y-139065000D03*
D17*
X111760000Y-125710000D03*
X111760000Y-123210000D03*
X116840000Y-125710000D03*
X116840000Y-123210000D03*
D14*
X112395000Y-99060000D03*
D15*
X112395000Y-101600000D03*
X112395000Y-104140000D03*
X112395000Y-106680000D03*
X112395000Y-109220000D03*
X112395000Y-111760000D03*
X112395000Y-114300000D03*
X112395000Y-116840000D03*
D18*
X123190000Y-98425000D03*
D19*
X130810000Y-131445000D03*
X123190000Y-100965000D03*
X130810000Y-128905000D03*
X123190000Y-103505000D03*
X130810000Y-126365000D03*
X123190000Y-106045000D03*
X130810000Y-123825000D03*
X123190000Y-108585000D03*
X130810000Y-121285000D03*
X123190000Y-111125000D03*
X130810000Y-118745000D03*
X123190000Y-113665000D03*
X130810000Y-116205000D03*
X123190000Y-116205000D03*
X130810000Y-113665000D03*
X123190000Y-118745000D03*
X130810000Y-111125000D03*
X123190000Y-121285000D03*
X130810000Y-108585000D03*
X123190000Y-123825000D03*
X130810000Y-106045000D03*
X123190000Y-126365000D03*
X130810000Y-103505000D03*
X123190000Y-128905000D03*
X130810000Y-100965000D03*
X123190000Y-131445000D03*
X130810000Y-98425000D03*
D14*
X106045000Y-116205000D03*
D15*
X106045000Y-118745000D03*
D20*
X119460000Y-118745000D03*
X116760000Y-118745000D03*
X116760000Y-99695000D03*
X119460000Y-99695000D03*
X116760000Y-107315000D03*
X119460000Y-107315000D03*
X116760000Y-114935000D03*
X119460000Y-114935000D03*
X116760000Y-103505000D03*
X119460000Y-103505000D03*
X116760000Y-111125000D03*
X119460000Y-111125000D03*
D14*
X135890000Y-131445000D03*
D15*
X135890000Y-133985000D03*
D14*
X135890000Y-98425000D03*
D15*
X135890000Y-100965000D03*
X135890000Y-103505000D03*
X135890000Y-106045000D03*
X135890000Y-108585000D03*
D14*
X135890000Y-114935000D03*
D15*
X135890000Y-117475000D03*
X135890000Y-120015000D03*
X135890000Y-122555000D03*
X135890000Y-125095000D03*
D14*
X106045000Y-125095000D03*
D15*
X106045000Y-127635000D03*
X106045000Y-130175000D03*
X106045000Y-132715000D03*
X106045000Y-135255000D03*
D21*
X106680000Y-121920000D03*
X128270000Y-104775000D03*
X138430000Y-106045000D03*
X127000000Y-134620000D03*
X127000000Y-122555000D03*
X119380000Y-139065000D03*
X113030000Y-120015000D03*
X109220000Y-111125000D03*
X126365000Y-111125000D03*
X126365000Y-103505000D03*
X128270000Y-115570000D03*
D22*
X106680000Y-121920000D02*
X109220000Y-124460000D01*
X109220000Y-124460000D02*
X113030000Y-124460000D01*
X113030000Y-124460000D02*
X113665000Y-125095000D01*
X113665000Y-125095000D02*
X116205000Y-125095000D01*
X116205000Y-125095000D02*
X116840000Y-125730000D01*
X116840000Y-125730000D02*
X116840000Y-125710000D01*
X116840000Y-125710000D02*
X114955000Y-125710000D01*
X114300000Y-126365000D02*
X114300000Y-129565000D01*
X114955000Y-125710000D02*
X114300000Y-126365000D01*
X128270000Y-104775000D02*
X134620000Y-104775000D01*
X134620000Y-104775000D02*
X135890000Y-106045000D01*
X111760000Y-125710000D02*
X111760000Y-129325000D01*
X111760000Y-129325000D02*
X112000000Y-129565000D01*
X102870000Y-116205000D02*
X102870000Y-104775000D01*
X102870000Y-104775000D02*
X106045000Y-104775000D01*
X106045000Y-132715000D02*
X102870000Y-132715000D01*
X102870000Y-116205000D02*
X106045000Y-116205000D01*
X102870000Y-132715000D02*
X102870000Y-116205000D01*
X135890000Y-106045000D02*
X138430000Y-106045000D01*
X106045000Y-132715000D02*
X108850000Y-132715000D01*
X108850000Y-132715000D02*
X112000000Y-129565000D01*
X116600000Y-129565000D02*
X116840000Y-129540000D01*
X116840000Y-129540000D02*
X120015000Y-132715000D01*
X120015000Y-132715000D02*
X120015000Y-139700000D01*
X120015000Y-139700000D02*
X119380000Y-140335000D01*
X119380000Y-140335000D02*
X116820000Y-140335000D01*
X111760000Y-123210000D02*
X111760000Y-123190000D01*
X111760000Y-123190000D02*
X114300000Y-120650000D01*
X114300000Y-120650000D02*
X114300000Y-119380000D01*
X114300000Y-119380000D02*
X112395000Y-117475000D01*
X112395000Y-117475000D02*
X112395000Y-116840000D01*
X116840000Y-123210000D02*
X116840000Y-123190000D01*
X116840000Y-123190000D02*
X118110000Y-124460000D01*
X118110000Y-124460000D02*
X118110000Y-127000000D01*
X118110000Y-127000000D02*
X116840000Y-128270000D01*
X116840000Y-128270000D02*
X116840000Y-129540000D01*
X116840000Y-129540000D02*
X116600000Y-129565000D01*
X111760000Y-123210000D02*
X111760000Y-123190000D01*
X111760000Y-123190000D02*
X116840000Y-123190000D01*
X116840000Y-123190000D02*
X116840000Y-123210000D01*
X123190000Y-116205000D02*
X125095000Y-116205000D01*
X127635000Y-113665000D02*
X130810000Y-113665000D01*
X125095000Y-116205000D02*
X127635000Y-113665000D01*
X130810000Y-113665000D02*
X132080000Y-113665000D01*
X135890000Y-109855000D02*
X135890000Y-108585000D01*
X132080000Y-113665000D02*
X135890000Y-109855000D01*
X137775000Y-125115000D02*
X137775000Y-108605000D01*
X137755000Y-108585000D02*
X135890000Y-108585000D01*
X137775000Y-108605000D02*
X137755000Y-108585000D01*
X137775000Y-133985000D02*
X137775000Y-125115000D01*
X137755000Y-125095000D02*
X135890000Y-125095000D01*
X137775000Y-125115000D02*
X137755000Y-125095000D01*
X137775000Y-139065000D02*
X137775000Y-133985000D01*
X137775000Y-133985000D02*
X137775000Y-134005000D01*
X137755000Y-133985000D02*
X135890000Y-133985000D01*
X137775000Y-134005000D02*
X137755000Y-133985000D01*
X116820000Y-140335000D02*
X116820000Y-142855000D01*
X133965000Y-142875000D02*
X137775000Y-139065000D01*
X116840000Y-142875000D02*
X133965000Y-142875000D01*
X116820000Y-142855000D02*
X116840000Y-142875000D01*
X127000000Y-134620000D02*
X127000000Y-122555000D01*
X114320000Y-140335000D02*
X114300000Y-140335000D01*
X114300000Y-140335000D02*
X115570000Y-139065000D01*
X115570000Y-139065000D02*
X119380000Y-139065000D01*
X123190000Y-121285000D02*
X125730000Y-121285000D01*
X125730000Y-135890000D02*
X128905000Y-139065000D01*
X125730000Y-121285000D02*
X125730000Y-135890000D01*
X128905000Y-139065000D02*
X129340000Y-139065000D01*
X129340000Y-139065000D02*
X135275000Y-139065000D01*
X113030000Y-120015000D02*
X107315000Y-114300000D01*
X107315000Y-114300000D02*
X107315000Y-108585000D01*
X107315000Y-108585000D02*
X106045000Y-107315000D01*
X109220000Y-111125000D02*
X111125000Y-113030000D01*
X111125000Y-113030000D02*
X113665000Y-113030000D01*
X113665000Y-113030000D02*
X115570000Y-114935000D01*
X115570000Y-114935000D02*
X115570000Y-116205000D01*
X115570000Y-116205000D02*
X116205000Y-116205000D01*
X116205000Y-116205000D02*
X117475000Y-117475000D01*
X117475000Y-117475000D02*
X118110000Y-117475000D01*
X118110000Y-117475000D02*
X118110000Y-120015000D01*
X118110000Y-120015000D02*
X118745000Y-120650000D01*
X118745000Y-120650000D02*
X118745000Y-123825000D01*
X118745000Y-123825000D02*
X119380000Y-123825000D01*
X119380000Y-123825000D02*
X119380000Y-124460000D01*
X119380000Y-124460000D02*
X121920000Y-127000000D01*
X121920000Y-127000000D02*
X121920000Y-130175000D01*
X121920000Y-130175000D02*
X123190000Y-131445000D01*
X112395000Y-99060000D02*
X116125000Y-99060000D01*
X116125000Y-99060000D02*
X116760000Y-99695000D01*
X112395000Y-101600000D02*
X114855000Y-101600000D01*
X114855000Y-101600000D02*
X116760000Y-103505000D01*
X112395000Y-104140000D02*
X113585000Y-104140000D01*
X113585000Y-104140000D02*
X116760000Y-107315000D01*
X116760000Y-111125000D02*
X116760000Y-111045000D01*
X116760000Y-111045000D02*
X112395000Y-106680000D01*
X116760000Y-114935000D02*
X116760000Y-113585000D01*
X116760000Y-113585000D02*
X112395000Y-109220000D01*
X112395000Y-114300000D02*
X112395000Y-114380000D01*
X112395000Y-114380000D02*
X116760000Y-118745000D01*
X126365000Y-111125000D02*
X126365000Y-103505000D01*
X135890000Y-114935000D02*
X132080000Y-118745000D01*
X132080000Y-118745000D02*
X132080000Y-120015000D01*
X132080000Y-120015000D02*
X129540000Y-120015000D01*
X129540000Y-120015000D02*
X129540000Y-122555000D01*
X129540000Y-122555000D02*
X130810000Y-123825000D01*
X123190000Y-108585000D02*
X125095000Y-108585000D01*
X125095000Y-99695000D02*
X119460000Y-99695000D01*
X125095000Y-108585000D02*
X125095000Y-99695000D01*
X130810000Y-121285000D02*
X134620000Y-121285000D01*
X134620000Y-121285000D02*
X135890000Y-120015000D01*
X119460000Y-103505000D02*
X121285000Y-103505000D01*
X121285000Y-111125000D02*
X123190000Y-111125000D01*
X121285000Y-103505000D02*
X121285000Y-111125000D01*
X130810000Y-111125000D02*
X129540000Y-112395000D01*
X129540000Y-112395000D02*
X121920000Y-112395000D01*
X121920000Y-112395000D02*
X121285000Y-111760000D01*
X121285000Y-111760000D02*
X120650000Y-111760000D01*
X120650000Y-111760000D02*
X120015000Y-111125000D01*
X120015000Y-111125000D02*
X119460000Y-111125000D01*
X119460000Y-114935000D02*
X119380000Y-114935000D01*
X119380000Y-114935000D02*
X120015000Y-115570000D01*
X120015000Y-115570000D02*
X120650000Y-115570000D01*
X120650000Y-115570000D02*
X121920000Y-116840000D01*
X121920000Y-116840000D02*
X121920000Y-117475000D01*
X121920000Y-117475000D02*
X125730000Y-117475000D01*
X125730000Y-117475000D02*
X127635000Y-115570000D01*
X127635000Y-115570000D02*
X128270000Y-115570000D01*
X123190000Y-123825000D02*
X120650000Y-121285000D01*
X120650000Y-121285000D02*
X120650000Y-117475000D01*
X120650000Y-117475000D02*
X119380000Y-116205000D01*
X119380000Y-116205000D02*
X118110000Y-116205000D01*
X118110000Y-116205000D02*
X118110000Y-109855000D01*
X118110000Y-109855000D02*
X119380000Y-108585000D01*
X119380000Y-108585000D02*
X119380000Y-107315000D01*
X119380000Y-107315000D02*
X119460000Y-107315000D01*
X119460000Y-118745000D02*
X119460000Y-122635000D01*
X119460000Y-122635000D02*
X123190000Y-126365000D01*
M02*
