M48
;DRILL file {KiCad 4.0.7} date 02/16/18 12:23:01
;FORMAT={-:-/ absolute / inch / decimal}
FMAT,2
INCH,TZ
T1C0.016
T2C0.031
T3C0.039
%
G90
G05
M72
T1
X4.2Y-4.8
X4.3Y-4.375
X4.45Y-4.725
X4.7Y-5.475
X4.975Y-4.075
X4.975Y-4.375
X5.Y-4.825
X5.Y-5.3
X5.05Y-4.125
X5.05Y-4.55
X5.45Y-4.175
T2
X4.85Y-3.875
X4.85Y-3.975
X4.85Y-4.075
X4.85Y-4.175
X4.85Y-4.275
X4.85Y-4.375
X4.85Y-4.475
X4.85Y-4.575
X4.85Y-4.675
X4.85Y-4.775
X4.85Y-4.875
X4.85Y-4.975
X4.85Y-5.075
X4.85Y-5.175
X4.9Y-5.475
X5.0921Y-5.475
X5.15Y-3.875
X5.15Y-3.975
X5.15Y-4.075
X5.15Y-4.175
X5.15Y-4.275
X5.15Y-4.375
X5.15Y-4.475
X5.15Y-4.575
X5.15Y-4.675
X5.15Y-4.775
X5.15Y-4.875
X5.15Y-4.975
X5.15Y-5.075
X5.15Y-5.175
T3
X4.175Y-4.125
X4.175Y-4.225
X4.175Y-4.325
X4.175Y-4.575
X4.175Y-4.675
X4.175Y-4.925
X4.175Y-5.025
X4.175Y-5.125
X4.175Y-5.225
X4.175Y-5.325
X4.425Y-3.9
X4.425Y-4.
X4.425Y-4.1
X4.425Y-4.2
X4.425Y-4.3
X4.425Y-4.4
X4.425Y-4.5
X4.425Y-4.6
X5.35Y-3.875
X5.35Y-3.975
X5.35Y-4.075
X5.35Y-4.175
X5.35Y-4.275
X5.35Y-4.525
X5.35Y-4.625
X5.35Y-4.725
X5.35Y-4.825
X5.35Y-4.925
X5.35Y-5.175
X5.35Y-5.275
T0
M30
